# xmcd CD database file
#
# Track frame offsets:
#	150
#	30569
#	63321
#	88964
#	113450
#	147404
#	185042
#	202406
#
# Disc length: 3044 seconds
#
# Revision: 0
# Processed by: cddbd v1.4PL0 Copyright (c) Steve Scherf et al.
# Submitted via: CDex 1.50
#
DISCID=770be208
DTITLE=Duke Jordan - Flight To Denmark
DYEAR=1973
DGENRE=Jazz
TTITLE0=No Problem
TTITLE1=Here's That Rainy Day
TTITLE2=Everything Happens To Me
TTITLE3=Glad I Met Pat
TTITLE4=How Deep Is The Ocean
TTITLE5=Green Dolphin Street
TTITLE6=If I Dio - Would You?
TTITLE7=Flight To Denmark
EXTD=YEAR: 1973
EXTT0=
EXTT1=
EXTT2=
EXTT3=
EXTT4=
EXTT5=
EXTT6=
EXTT7=
PLAYORDER=
